<svg xmlns="http://www.w3.org/2000/svg" width="100%" height="100%" fill="none" viewBox="0 0 500 500"><path stroke="currentColor" stroke-width="20" d="M265 20.2073L441.506 122.113C450.788 127.472 456.506 137.376 456.506 148.094V351.906C456.506 362.624 450.788 372.528 441.506 377.887L265 479.793C255.718 485.152 244.282 485.152 235 479.793L58.4937 377.887C49.2116 372.528 43.4937 362.624 43.4937 351.906V148.094C43.4937 137.376 49.2116 127.472 58.4937 122.113L235 20.2073C244.282 14.8483 255.718 14.8483 265 20.2073Z" class="tranition-all"/><path fill="currentColor" d="m 249.44922,149.53223 h 39.75586 v 125.0625 q 0,24.52734 -4.3125,37.73437 -5.79492,17.25 -21.02344,27.76172 -15.22852,10.37695 -40.16016,10.37695 -29.24414,0 -45.01171,-16.30664 -15.76758,-16.4414 -15.90235,-48.11133 l 37.59961,-4.3125 q 0.67383,16.98047 4.98633,23.98829 6.46875,10.64648 19.67578,10.64648 13.3418,0 18.86719,-7.54687 5.52539,-7.68165 5.52539,-31.66993 z" class="tranition-all"/></svg>